# AST/ASF file generated using VICON BodyLanguage
# -----------------------------------------------
:version 1.10
:name VICON
:units
  mass 1.0
  length 0.45
  angle deg
:documentation
   .ast/.asf automatically generated from VICON data using
   VICON BodyBuilder and BodyLanguage model FoxedUp or BRILLIANT.MOD
:root
   order TX TY TZ RX RY RZ
   axis XYZ
   position 0 0 0  
   orientation 0 0 0 
:bonedata
  begin
     id 1 
     name lhipjoint
     direction 0.646657 -0.683706 0.338203 
     length 2.4948 
     axis 0 0 0  XYZ
  end
  begin
     id 2 
     name lfemur
     direction 0.34202 -0.939693 0  
     length 6.79491  
     axis 0 0 20  XYZ
    dof rx ry rz
    limits (-160.0 20.0)
           (-70.0 70.0)
           (-60.0 70.0)
  end
  begin
     id 3 
     name ltibia
     direction 0.34202 -0.939693 0   
     length 7.56807   
     axis 0 0 20   XYZ
    dof rx
    limits (-10.0 170.0)
  end
  begin
     id 4 
     name lfoot
     direction 0.0679796 -0.186772 0.980048   
     length 2.53018   
     axis -90 7.62852e-016 20   XYZ
    dof rx rz
    limits (-45.0 90.0)
           (-70.0 20.0)
  end
  begin
     id 5 
     name ltoes
     direction 1.53625e-011 -4.21881e-011 1   
     length 1.26912   
     axis -90 7.62852e-016 20   XYZ
    dof rx
    limits (-90.0 20.0)
  end
  begin
     id 6 
     name rhipjoint
     direction -0.618868 -0.704065 0.348274   
     length 2.42265  
     axis 0 0 0  XYZ 
  end
  begin
     id 7 
     name rfemur
     direction -0.34202 -0.939693 0   
     length 6.73814   
     axis 0 0 -20   XYZ
    dof rx ry rz
    limits (-160.0 20.0)
           (-70.0 70.0)
           (-70.0 60.0)
  end
  begin
     id 8 
     name rtibia
     direction -0.34202 -0.939693 0   
     length 7.66799   
     axis 0 0 -20   XYZ
    dof rx
    limits (-10.0 170.0)
 end
 begin
     id 9 
     name rfoot
     direction -0.0727352 -0.199838 0.977125   
     length 2.57224  
     axis -90 -7.62852e-016 -20   XYZ
    dof rx rz
    limits (-45.0 90.0)
           (-20.0 70.0)
  end
  begin
     id 10 
     name rtoes
     direction -1.53501e-011 -4.21858e-011 1   
     length 1.28858   
     axis -90 -7.62852e-016 -20   XYZ
    dof rx
    limits (-90.0 20.0)
  end
  begin
     id 11 
     name lowerback
     direction -0.0172471 0.995767 -0.0902851   
     length 2.20206   
     axis 0 0 0   XYZ
    dof rx ry rz
    limits (-20.0 45.0)
           (-30.0 30.0)
           (-30.0 30.0)
  end
  begin
     id 12 
     name upperback
     direction -0.000110737 0.999714 0.0239043   
     length 2.19523   
     axis 0 0 0   XYZ
    dof rx ry rz
    limits (-20.0 45.0)
           (-30.0 30.0)
           (-30.0 30.0)
  end
  begin
     id 13 
     name thorax
     direction 0.00704869 0.997783 0.0661741   
     length 2.21977   
     axis 0 0 0   XYZ
    dof rx ry rz
    limits (-20.0 45.0)
           (-30.0 30.0)
           (-30.0 30.0)
  end
  begin
     id 14 
     name lowerneck
     direction -0.00407501 0.995527 0.0943846   
     length 1.83142   
     axis 0 0 0   XYZ
    dof rx ry rz
    limits (-20.0 45.0)
           (-30.0 30.0)
           (-30.0 30.0)
  end
  begin
     id 15 
     name upperneck
     direction 0.0640586 0.986486 -0.150807   
     length 1.84616   
     axis 0 0 0   XYZ
    dof rx ry rz
    limits (-20.0 45.0)
           (-30.0 30.0)
           (-30.0 30.0)
  end
  begin
     id 16
     name head
     direction 0.0188017 0.99791 -0.0618239  
     length 1.85932  
     axis 0 0 0   XYZ
    dof rx ry rz
    limits (-20.0 45.0)
           (-30.0 30.0)
           (-30.0 30.0)
  end
  begin
     id 17 
     name lclavicle
     direction 0.976074 0.206905 0.066852  
     length 3.81043  
     axis 0 0 0   XYZ
    dof ry rz
    limits (-20.0 10.0)
           (0.0 20.0)
  end
  begin
     id 18 
     name lhumerus
     direction 1 -4.48971e-011 1.86916e-027   
     length 5.37587   
     axis 180 -30 -90   XYZ
    dof rx ry rz
    limits (-60.0 90.0)
           (-90.0 90.0)
           (-90.0 90.0)
  end
  begin
     id 19
     name lradius
     direction 1 -4.48968e-011 1.69187e-027   
     length 3.35977   
     axis 180 -30 -90   XYZ
    dof rx
    limits (-10.0 170.0)
  end
  begin
     id 20
     name lwrist
     direction 1 -4.48968e-011 5.8978e-027   
     length 1.67988   
     axis -3.27506e-015 90 90   XYZ
    dof ry
    limits (-180.0 0.0)
 end
  begin
     id 21 
     name lhand
     direction 1 -4.49028e-011 1.18071e-026   
     length 0.561859   
     axis -7.52654e-015 90 90   XYZ
    dof rx rz
    limits (-90.0 90.0)
           (-45.0 45.0)
  end
  begin
     id 22 
     name lfingers
     direction 1 -4.48927e-011 2.35758e-026   
     length 0.452985   
     axis -1.50534e-014 90 90   XYZ
    dof rx
    limits (0.0 90.0)
  end
  begin
     id 23
     name lthumb
     direction 0.707107 -6.34898e-011 0.707107   
     length 0.650399   
     axis -90 45 5.69224e-014   XYZ
    dof rx rz
    limits (-45.0 45.0)
           (-45.0 45.0)
  end
  begin
     id 24 
     name rclavicle
     direction -0.988403 0.151789 0.00439714   
     length 3.6942  
     axis 0 0 0   XYZ 
    dof ry rz
    limits (-10.0 20.0)
           (-20.0 0.0)
  end
  begin
     id 25 
     name rhumerus
     direction -1 -4.48978e-011 1.62495e-027  
     length 5.22819   
     axis 180 30 90   XYZ
    dof rx ry rz
    limits (-90.0 60.0)
           (-90.0 90.0)
           (-90.0 90.0)
  end
  begin
     id 26 
     name rradius
     direction -1 -4.48961e-011 3.47796e-027   
     length 3.40764   
     axis 180 30 90   XYZ
    dof rx
    limits (-10.0 170.0)
  end
  begin
     id 27 
     name rwrist
     direction -1 -4.48949e-011 5.89602e-027   
     length 1.70382   
     axis -3.27506e-015 -90 -90   XYZ
    dof ry
    limits (-180.0 0.0)
  end
  begin
     id 28
     name rhand
     direction -1 -4.48977e-011 1.17973e-026   
     length 0.583255   
     axis -7.52654e-015 -90 -90   XYZ
    dof rx rz
    limits (-90.0 90.0)
           (-45.0 45.0)
  end
  begin
     id 29
     name rfingers
     direction -1 -4.49099e-011 2.36408e-026   
     length 0.470235   
     axis -1.50534e-014 -90 -90   XYZ
    dof rx
    limits (0.0 90.0)
  end
  begin
     id 30
     name rthumb
     direction -0.707107 -6.35011e-011 0.707107   
     length 0.675167   
     axis -90 -45 -5.69224e-014   XYZ
    dof rx rz
    limits (-45.0 45.0)
           (-45.0 45.0)
  end
:hierarchy
  begin
    root lhipjoint rhipjoint lowerback
    lhipjoint lfemur
    lfemur ltibia
    ltibia lfoot
    lfoot ltoes
    rhipjoint rfemur
    rfemur rtibia
    rtibia rfoot
    rfoot rtoes
    lowerback upperback
    upperback thorax
    thorax lowerneck lclavicle rclavicle
    lowerneck upperneck
    upperneck head
    lclavicle lhumerus
    lhumerus lradius
    lradius lwrist
    lwrist lhand lthumb
    lhand lfingers
    rclavicle rhumerus
    rhumerus rradius
    rradius rwrist
    rwrist rhand rthumb
    rhand rfingers
  end

#!OML:ASF G:\JayActor3\Patient Classification 1\Patient 1\Session 2\male.ASF
:FULLY-SPECIFIED
:DEGREES
843
root 3.25459 17.0131 -5.53602 18.6579 -84.7825 -16.8983
lowerback 0.977186 0.748726 1.86611
upperback 9.59433 0.544426 0.618666
thorax 9.59357 0.252236 -0.368177
lowerneck -0.244522 4.97617 4.00719
upperneck 20.3898 6.03086 -0.442268
head 6.37253 2.96189 -0.496242
rclavicle 5.36719e-015 -1.32192e-014
rhumerus -29.3961 4.48611 -92.177
rradius 53.683
rwrist -3.25025
rhand -16.363 4.64019
rfingers 7.12502
rthumb 9.84997 -25.1094
lclavicle 5.36719e-015 -1.32192e-014
lhumerus -23.4478 -8.43799 92.5433
lradius 42.014
lwrist 20.2784
lhand -22.4933 17.1711
lfingers 7.12502
lthumb 3.93243 47.1146
rfemur -20.9313 2.17687 26.1832
rtibia 33.0037
rfoot -15.5882 -5.63176
rtoes 27.9173
lfemur -22.8224 -0.198807 -17.4608
ltibia 70.5142
lfoot 12.6096 -0.960112
ltoes -5.48888
844
root 3.16159 17.0097 -5.54384 18.8659 -84.6598 -17.2253
lowerback 1.06299 0.768335 1.92254
upperback 9.61813 0.565282 0.64936
thorax 9.57059 0.264554 -0.366298
lowerneck -0.249541 4.98288 4.04128
upperneck 20.3584 6.05077 -0.497417
head 6.36668 2.97121 -0.518162
rclavicle 8.15017e-015 6.65929e-015
rhumerus -29.543 4.76238 -92.274
rradius 53.8623
rwrist -3.39255
rhand -15.6147 4.51398
rfingers 7.12502
rthumb 10.5718 -25.2001
lclavicle 8.15017e-015 6.65929e-015
lhumerus -23.7169 -8.6975 92.6379
lradius 42.394
lwrist 21.2534
lhand -22.0435 17.3317
lfingers 7.12502
lthumb 4.36678 47.2666
rfemur -20.519 2.05554 26.3507
rtibia 33.1364
rfoot -15.7797 -5.71367
rtoes 27.838
lfemur -23.7098 -0.851958 -17.4069
ltibia 70.9619
lfoot 10.8908 -0.907948
ltoes -6.95086
845
root 3.06916 17.0056 -5.55178 19.1008 -84.5504 -17.5777
lowerback 1.15011 0.789389 1.97175
upperback 9.64071 0.588891 0.676239
thorax 9.54548 0.277819 -0.364314
lowerneck -0.259497 4.99219 4.06878
upperneck 20.3223 6.07253 -0.540405
head 6.35962 2.98186 -0.534948
rclavicle 1.20762e-014 1.88845e-015
rhumerus -29.6843 5.04238 -92.3779
rradius 54.0124
rwrist -3.49864
rhand -14.8788 4.39252
rfingers 7.12502
rthumb 11.2817 -25.2841
lclavicle 1.20762e-014 1.88845e-015
lhumerus -24.0165 -9.01129 92.7495
lradius 42.8334
lwrist 22.1016
lhand -21.6172 17.4462
lfingers 7.12502
lthumb 4.77838 47.3724
rfemur -20.1127 1.94262 26.5197
rtibia 33.2752
rfoot -16.0194 -5.78366
rtoes 27.7081
lfemur -24.5473 -1.46979 -17.3482
ltibia 71.2373
lfoot 9.14307 -0.794316
ltoes -8.28198
846
root 2.97709 17.0008 -5.55966 19.3449 -84.4578 -17.9358
lowerback 1.23412 0.812483 2.01171
upperback 9.66111 0.616238 0.698189
thorax 9.51975 0.292464 -0.362167
lowerneck -0.269915 5.0029 4.09255
upperneck 20.2809 6.09483 -0.573969
head 6.35057 2.99318 -0.548141
rclavicle -1.83379e-014 3.27995e-015
rhumerus -29.8212 5.31216 -92.4851
rradius 54.1344
rwrist -3.5672
rhand -14.1326 4.2684
rfingers 7.12502
rthumb 12.0013 -25.3675
lclavicle -1.83379e-014 3.27995e-015
lhumerus -24.3447 -9.34912 92.8722
lradius 43.3305
lwrist 22.78
lhand -21.1992 17.4967
lfingers 7.12502
lthumb 5.18203 47.4134
rfemur -19.7101 1.84847 26.6847
rtibia 33.4172
rfoot -16.2951 -5.83321
rtoes 27.5501
lfemur -25.3358 -2.04744 -17.2909
ltibia 71.3457
lfoot 7.41179 -0.572835
ltoes -9.40555
847
root 2.88508 16.9951 -5.5672 19.6355 -84.3844 -18.3392
lowerback 1.3131 0.838983 2.04695
upperback 9.68165 0.648548 0.717035
thorax 9.49726 0.309341 -0.360337
lowerneck -0.286319 5.01497 4.10853
upperneck 20.239 6.11702 -0.594475
head 6.34173 3.00479 -0.555776
rclavicle 5.61567e-015 3.47873e-015
rhumerus -29.9511 5.57288 -92.5918
rradius 54.2227
rwrist -3.61276
rhand -13.4165 4.14947
rfingers 7.12502
rthumb 12.6917 -25.4449
lclavicle 5.61567e-015 3.47873e-015
lhumerus -24.6899 -9.6749 93.003
lradius 43.876
lwrist 23.2751
lhand -20.7923 17.4822
lfingers 7.12502
lthumb 5.57485 47.3889
rfemur -19.3056 1.77036 26.8482
rtibia 33.5581
rfoot -16.5993 -5.85538
rtoes 27.3991
lfemur -26.0717 -2.57971 -17.2343
ltibia 71.2913
lfoot 5.71923 -0.22856
ltoes -10.4017
